<svg xmlns="http://www.w3.org/2000/svg" width="19.081" height="19.081" viewBox="0 0 19.081 19.081">
  <path id="Icon_awesome-at" data-name="Icon awesome-at" d="M10.1.562A9.541,9.541,0,1,0,15.312,18.1a.925.925,0,0,0,.214-1.361l-.392-.478a.921.921,0,0,0-1.207-.2A7.079,7.079,0,1,1,10.1,3.025c3.852,0,7.078,2.217,7.078,6.155,0,1.492-.811,3.068-2.238,3.22-.667-.017-.651-.495-.518-1.155l.9-4.659a.923.923,0,0,0-.906-1.1H12.69a.52.52,0,0,0-.517.461v0a2.958,2.958,0,0,0-2.307-.838c-2.869,0-5.3,2.394-5.3,5.827,0,2.512,1.415,4.073,3.693,4.073a3.893,3.893,0,0,0,2.885-1.475c.366,1.312,1.562,1.312,2.72,1.312,4.19,0,5.782-2.755,5.782-5.671C19.644,3.934,15.413.562,10.1.562ZM9.269,12.274a1.378,1.378,0,0,1-1.388-1.568,2.57,2.57,0,0,1,2.255-2.8c.858,0,1.37.586,1.37,1.568A2.655,2.655,0,0,1,9.269,12.274Z" transform="translate(-0.563 -0.563)" fill="#fff"/>
</svg>
